# xmcd
#
# Track frame offsets:
#	225
#	12905
#	25618
#	37715
#	53035
#	65947
#	80326
#	93570
#	102254
#	115944
#	128109
#	141176
#	153996
#
# Disc length: 2222 seconds
#
# Revision: 1
# Processed by: cddbd v1.5.2PL0 Copyright (c) Steve Scherf et al.
# Submitted via: audiograbber 1.83.01
#
DISCID=a208ab0d
DTITLE=Charlie Barrett - Strings Attached
DYEAR=1997
DGENRE=Country
TTITLE0=Heatache Café
TTITLE1=Making a movie
TTITLE2=I'm not lonely
TTITLE3=You are everything to me
TTITLE4=Wrong side of no one
TTITLE5=It'll come back to you
TTITLE6=Does anybody know what love is anymore
TTITLE7=Strings attached
TTITLE8=Workin' on love
TTITLE9=Let my sleeping heart lie
TTITLE10=The one who's left behind
TTITLE11=The grass can't get no greener
TTITLE12=When she dances
EXTD=
EXTT0=
EXTT1=
EXTT2=
EXTT3=
EXTT4=
EXTT5=
EXTT6=
EXTT7=
EXTT8=
EXTT9=
EXTT10=
EXTT11=
EXTT12=
PLAYORDER=
